<svg xmlns="http://www.w3.org/2000/svg" xmlns:xlink="http://www.w3.org/1999/xlink" width="1366" zoomAndPan="magnify" viewBox="0 0 1024.5 576" height="768" preserveAspectRatio="xMidYMid meet" version="1.0"><defs><clipPath id="e3f0fa69aa"><path d="M 17.84375 288.140625 L 348.753906 288.140625 L 348.753906 575.859375 L 17.84375 575.859375 Z M 17.84375 288.140625 " clip-rule="nonzero"/></clipPath><clipPath id="d7b1f0209d"><path d="M 426.179688 472.355469 L 757.09375 472.355469 L 757.09375 575.859375 L 426.179688 575.859375 Z M 426.179688 472.355469 " clip-rule="nonzero"/></clipPath><clipPath id="d772b8169a"><path d="M 636.128906 282 L 1024 282 L 1024 484.039062 L 636.128906 484.039062 Z M 636.128906 282 " clip-rule="nonzero"/></clipPath><clipPath id="52436d2572"><path d="M 160 530 L 539 530 L 539 575.859375 L 160 575.859375 Z M 160 530 " clip-rule="nonzero"/></clipPath><clipPath id="33f55b09ff"><path d="M 80.527344 641.160156 L 432.847656 444.480469 L 538.5 633.734375 L 186.179688 830.417969 Z M 80.527344 641.160156 " clip-rule="nonzero"/></clipPath><clipPath id="ff0d874b7b"><path d="M 80.527344 641.160156 L 432.847656 444.480469 L 538.5 633.734375 L 186.179688 830.417969 Z M 80.527344 641.160156 " clip-rule="nonzero"/></clipPath><clipPath id="d8e9a753c1"><path d="M 0 216 L 112 216 L 112 517 L 0 517 Z M 0 216 " clip-rule="nonzero"/></clipPath><clipPath id="199ca53df5"><path d="M -346.105469 327.230469 L 6.214844 130.546875 L 111.867188 319.804688 L -240.453125 516.484375 Z M -346.105469 327.230469 " clip-rule="nonzero"/></clipPath><clipPath id="a0d3658d85"><path d="M -346.105469 327.230469 L 6.214844 130.546875 L 111.867188 319.804688 L -240.453125 516.484375 Z M -346.105469 327.230469 " clip-rule="nonzero"/></clipPath><clipPath id="35c338e646"><path d="M 362 404 L 581 404 L 581 575.859375 L 362 575.859375 Z M 362 404 " clip-rule="nonzero"/></clipPath></defs><g clip-path="url(#e3f0fa69aa)"><path fill="#d9d9d9" d="M 219.929688 411.714844 C 216.046875 411.714844 212.21875 412.316406 208.648438 413.5 C 203.265625 415.28125 198.761719 418.335938 195.621094 422.328125 C 194.15625 424.191406 192.980469 426.25 192.03125 428.414062 C 199.785156 427.585938 207.484375 426.226562 215.0625 424.34375 C 219.308594 423.289062 223.765625 421.992188 227.605469 419.683594 C 229.414062 418.597656 230.347656 417.488281 230.460938 416.289062 C 230.710938 413.53125 226.839844 412.292969 224.757812 412.027344 C 223.152344 411.820312 221.535156 411.714844 219.929688 411.714844 Z M 137.421875 410.566406 C 132.6875 410.566406 131.320312 411.945312 130.707031 412.992188 C 129.75 414.613281 130.273438 416.714844 131.210938 418.074219 C 132.296875 419.644531 133.972656 420.699219 135.621094 421.609375 C 144.152344 426.332031 154.59375 428.785156 168.300781 429.28125 C 166.808594 424.585938 164.789062 420.980469 162.148438 418.289062 C 159.34375 415.433594 155.558594 413.355469 150.894531 412.105469 C 147.140625 411.097656 142.773438 410.59375 137.546875 410.566406 C 137.503906 410.566406 137.460938 410.566406 137.421875 410.566406 Z M 169.53125 430.222656 C 169.558594 430.316406 169.585938 430.402344 169.609375 430.496094 C 172.414062 440.429688 172.265625 450.847656 172.128906 460.921875 C 172.007812 469.589844 171.882812 478.554688 168.984375 486.960938 C 167.761719 490.519531 166.03125 493.960938 164.363281 497.285156 C 161.773438 502.429688 159.101562 507.746094 158.351562 513.480469 C 158.144531 515.046875 158.066406 517.867188 159.871094 519.101562 C 160.769531 519.714844 162.011719 519.820312 163.007812 519.902344 C 180.1875 521.320312 197.300781 521.515625 213.230469 521.515625 C 213.605469 521.515625 213.972656 521.515625 214.328125 521.511719 C 209.464844 519.78125 205.117188 517.503906 201.390625 514.726562 C 196.984375 511.445312 193.550781 507.539062 191.195312 503.113281 C 186.414062 494.140625 186.054688 483.980469 185.703125 474.15625 C 185.332031 463.886719 185.875 453.542969 187.304688 443.402344 C 187.941406 438.902344 188.84375 434.015625 190.617188 429.464844 C 184.140625 430.101562 177.625 430.363281 171.105469 430.257812 C 170.574219 430.25 170.050781 430.234375 169.53125 430.222656 Z M 145.679688 531.839844 C 148.238281 534.703125 151.527344 537.128906 155.460938 539.046875 C 161.941406 542.207031 170.378906 544.09375 180.539062 544.652344 C 181.683594 544.714844 182.996094 544.804688 184.382812 544.902344 C 190.511719 545.328125 198.914062 545.914062 206.445312 544.992188 C 210.53125 544.488281 213.976562 543.582031 216.699219 542.289062 C 219.828125 540.808594 222.101562 538.765625 223.460938 536.226562 C 224.289062 534.675781 224.5625 533.042969 224.195312 531.851562 C 223.949219 531.050781 223.414062 530.433594 222.613281 530.011719 C 221.375 529.371094 219.929688 529.140625 218.632812 529.371094 C 201.785156 532.386719 191.210938 533.550781 182.132812 533.378906 C 173.207031 533.210938 165.824219 531.773438 154.714844 529.425781 C 151.613281 528.769531 148.179688 529.609375 145.964844 531.570312 C 145.871094 531.660156 145.773438 531.746094 145.679688 531.839844 Z M 148.917969 552.203125 C 150.902344 555.742188 153.320312 558.972656 156.691406 561.1875 C 160.828125 563.902344 165.9375 564.730469 170.847656 565.222656 C 173.335938 565.472656 185 565.761719 196.515625 564.945312 C 211.347656 563.894531 220.566406 561.460938 223.171875 557.914062 C 224.035156 556.730469 224.152344 555.449219 223.527344 553.988281 C 223.035156 552.839844 222.082031 552.324219 220.234375 552.207031 C 218.347656 552.085938 215.714844 552.402344 212.070312 552.839844 C 201.40625 554.125 183.554688 556.277344 153.609375 551.503906 C 151.957031 551.242188 150.285156 551.496094 148.917969 552.203125 Z M 175.871094 590.402344 C 167.085938 590.402344 157.453125 588.464844 150.144531 586.15625 C 137.570312 582.1875 124.765625 575.289062 109.847656 564.4375 C 99.726562 557.082031 88.636719 552.5 76.882812 550.828125 C 67.476562 549.484375 57.621094 549.992188 47.59375 552.332031 C 30.492188 556.320312 18.667969 564.367188 18.550781 564.445312 C 18.34375 564.585938 18.0625 564.535156 17.921875 564.328125 C 17.78125 564.125 17.832031 563.84375 18.039062 563.699219 C 18.15625 563.621094 30.097656 555.492188 47.355469 551.460938 C 57.5 549.089844 67.46875 548.574219 76.992188 549.929688 C 88.902344 551.625 100.132812 556.261719 110.378906 563.710938 C 125.214844 574.496094 137.9375 581.359375 150.417969 585.292969 C 161.722656 588.863281 178.632812 591.558594 189.074219 587.410156 C 192.613281 586.007812 195.144531 583.292969 195.378906 580.660156 C 195.5625 578.589844 194.351562 576.691406 191.875 575.160156 C 187.324219 572.34375 181.015625 573.222656 174.914062 574.070312 C 171.007812 574.617188 167.316406 575.132812 164.074219 574.722656 C 159.53125 574.15625 154.976562 572.371094 151.578125 569.832031 C 147.652344 566.902344 145.386719 563.164062 145.019531 559.015625 C 144.808594 556.613281 145.414062 553.503906 147.71875 551.875 C 146.796875 550.171875 145.980469 548.4375 145.222656 546.765625 C 143.074219 542.035156 141.324219 535.78125 144.480469 531.828125 C 141.804688 528.648438 139.90625 524.925781 138.800781 520.671875 C 137.316406 514.953125 136.585938 509.273438 135.875 503.777344 C 134.65625 494.351562 133.507812 485.453125 128.898438 476.324219 C 124.558594 467.734375 118.636719 459.898438 112.910156 452.316406 C 108.046875 445.878906 103.019531 439.222656 98.953125 432.105469 C 91.722656 419.460938 87.457031 404.828125 86.609375 389.789062 C 85.765625 374.75 88.367188 359.730469 94.132812 346.359375 C 97.890625 337.648438 102.878906 329.613281 108.96875 322.476562 C 114.785156 315.664062 121.585938 309.679688 129.191406 304.691406 C 143.898438 295.039062 161.105469 289.378906 178.957031 288.320312 C 196.054688 287.308594 212.863281 290.621094 227.5625 297.898438 C 235.257812 301.714844 242.332031 306.59375 248.582031 312.398438 C 255.136719 318.492188 260.8125 325.632812 265.449219 333.628906 C 271.234375 343.605469 274.980469 354.476562 276.574219 365.9375 C 278.046875 376.523438 277.707031 387.710938 275.566406 399.191406 C 271.734375 419.726562 262.203125 441.050781 247.996094 460.859375 C 247.984375 460.875 247.976562 460.886719 247.964844 460.898438 C 247.914062 460.953125 242.734375 466.730469 237.359375 475.53125 C 234.203125 480.695312 231.601562 485.875 229.617188 490.933594 C 227.148438 497.242188 225.648438 503.363281 225.15625 509.136719 C 224.632812 515.296875 223.394531 518.867188 221.140625 520.707031 C 220.40625 521.308594 219.601562 521.699219 218.722656 521.949219 C 227.476562 524.351562 237.058594 524.832031 244.917969 523.207031 C 256.011719 520.90625 264.019531 518.902344 270.457031 517.292969 C 282.5 514.28125 289.132812 512.625 300.265625 512.957031 C 307.511719 513.171875 314.558594 514.195312 321.214844 516 C 326.539062 517.441406 331.625 519.386719 336.335938 521.777344 C 344.367188 525.851562 348.449219 529.757812 348.617188 529.921875 C 348.796875 530.09375 348.800781 530.378906 348.628906 530.558594 C 348.457031 530.738281 348.171875 530.742188 347.988281 530.570312 C 347.949219 530.53125 343.8125 526.578125 335.886719 522.5625 C 331.238281 520.207031 326.210938 518.289062 320.949219 516.863281 C 314.371094 515.082031 307.40625 514.070312 300.242188 513.855469 C 289.234375 513.527344 282.640625 515.175781 270.675781 518.167969 C 264.230469 519.78125 256.210938 521.785156 245.101562 524.089844 C 236.582031 525.855469 226.078125 525.1875 216.734375 522.3125 C 215.644531 522.417969 214.46875 522.417969 213.230469 522.417969 C 197.28125 522.417969 180.144531 522.222656 162.933594 520.800781 C 161.828125 520.710938 160.457031 520.597656 159.359375 519.847656 C 157.269531 518.414062 157.167969 515.53125 157.453125 513.363281 C 158.226562 507.480469 160.933594 502.089844 163.554688 496.878906 C 165.210938 493.582031 166.925781 490.167969 168.132812 486.667969 C 170.980469 478.398438 171.105469 469.507812 171.222656 460.910156 C 171.363281 450.898438 171.507812 440.546875 168.738281 430.742188 C 168.691406 430.558594 168.636719 430.375 168.582031 430.195312 C 154.570312 429.722656 143.910156 427.226562 135.183594 422.402344 C 133.441406 421.4375 131.664062 420.308594 130.472656 418.585938 C 129.363281 416.992188 128.769531 414.496094 129.929688 412.53125 C 131.460938 409.933594 135.015625 409.652344 137.546875 409.664062 C 142.855469 409.691406 147.296875 410.203125 151.132812 411.230469 C 155.953125 412.523438 159.875 414.6875 162.789062 417.65625 C 165.589844 420.507812 167.714844 424.332031 169.257812 429.3125 C 169.875 429.332031 170.492188 429.34375 171.121094 429.355469 C 177.757812 429.464844 184.402344 429.183594 191.003906 428.519531 C 192.011719 426.125 193.285156 423.835938 194.910156 421.769531 C 198.160156 417.636719 202.8125 414.480469 208.367188 412.644531 C 213.535156 410.929688 219.246094 410.410156 224.875 411.128906 C 226.523438 411.34375 228.125 411.894531 229.269531 412.648438 C 230.769531 413.628906 231.492188 414.917969 231.359375 416.375 C 231.21875 417.875 230.144531 419.210938 228.070312 420.457031 C 224.128906 422.828125 219.59375 424.148438 215.28125 425.21875 C 207.5 427.152344 199.59375 428.535156 191.628906 429.363281 C 189.773438 433.953125 188.851562 438.945312 188.199219 443.53125 C 186.777344 453.617188 186.238281 463.910156 186.605469 474.125 C 186.953125 483.847656 187.3125 493.898438 191.996094 502.691406 C 194.285156 506.992188 197.628906 510.800781 201.929688 514.003906 C 205.859375 516.929688 210.496094 519.292969 215.714844 521.039062 C 216.085938 521.160156 216.457031 521.28125 216.835938 521.398438 C 218.277344 521.238281 219.519531 520.871094 220.570312 520.007812 C 222.589844 518.359375 223.757812 514.878906 224.253906 509.058594 C 224.753906 503.199219 226.277344 496.984375 228.785156 490.59375 C 230.785156 485.488281 233.414062 480.257812 236.597656 475.046875 C 241.859375 466.433594 246.9375 460.691406 247.277344 460.3125 C 261.398438 440.617188 270.875 419.421875 274.679688 399.027344 C 276.800781 387.640625 277.140625 376.550781 275.679688 366.066406 C 274.101562 354.71875 270.394531 343.957031 264.667969 334.082031 C 260.074219 326.164062 254.457031 319.09375 247.964844 313.058594 C 241.78125 307.3125 234.78125 302.480469 227.15625 298.707031 C 212.601562 291.496094 195.953125 288.214844 179.011719 289.222656 C 161.320312 290.269531 144.261719 295.878906 129.6875 305.445312 C 122.15625 310.386719 115.417969 316.3125 109.660156 323.0625 C 103.625 330.128906 98.683594 338.085938 94.960938 346.714844 C 89.253906 359.960938 86.675781 374.839844 87.515625 389.738281 C 88.351562 404.640625 92.578125 419.136719 99.734375 431.660156 C 103.773438 438.726562 108.785156 445.355469 113.628906 451.773438 C 119.382812 459.386719 125.328125 467.257812 129.703125 475.917969 C 134.382812 485.183594 135.597656 494.578125 136.769531 503.664062 C 137.476562 509.132812 138.207031 514.78125 139.675781 520.441406 C 140.730469 524.503906 142.550781 528.101562 145.089844 531.152344 C 145.179688 531.066406 145.273438 530.976562 145.367188 530.894531 C 147.785156 528.753906 151.527344 527.828125 154.90625 528.542969 C 165.957031 530.878906 173.304688 532.308594 182.148438 532.476562 C 191.164062 532.648438 201.6875 531.488281 218.472656 528.484375 C 219.960938 528.21875 221.621094 528.484375 223.023438 529.210938 C 223.027344 529.210938 223.027344 529.210938 223.03125 529.210938 C 224.054688 529.746094 224.734375 530.542969 225.058594 531.582031 C 225.6875 533.625 224.710938 535.808594 224.257812 536.648438 C 218.101562 548.15625 196.953125 546.683594 184.316406 545.800781 C 182.9375 545.707031 181.628906 545.613281 180.488281 545.554688 C 163.902344 544.640625 152.054688 540.269531 145.082031 532.523438 C 142.359375 536.144531 144.035156 541.960938 146.042969 546.394531 C 146.808594 548.074219 147.605469 549.769531 148.484375 551.410156 C 150.023438 550.609375 151.902344 550.320312 153.753906 550.613281 C 183.570312 555.367188 201.34375 553.222656 211.960938 551.945312 C 219.351562 551.054688 223.058594 550.605469 224.355469 553.632812 C 225.109375 555.386719 224.953125 557.007812 223.898438 558.449219 C 222.351562 560.550781 218.804688 562.269531 213.355469 563.558594 C 208.949219 564.601562 203.308594 565.371094 196.578125 565.847656 C 185.007812 566.667969 173.265625 566.371094 170.753906 566.121094 C 165.734375 565.617188 160.496094 564.765625 156.199219 561.941406 C 152.71875 559.65625 150.1875 556.269531 148.160156 552.671875 C 146.234375 554.09375 145.734375 556.816406 145.921875 558.933594 C 146.65625 567.300781 155.667969 572.761719 164.1875 573.828125 C 167.308594 574.21875 170.945312 573.714844 174.792969 573.175781 C 181.050781 572.304688 187.523438 571.40625 192.351562 574.394531 C 194.292969 575.59375 196.546875 577.667969 196.277344 580.738281 C 196.011719 583.75 193.316406 586.699219 189.410156 588.25 C 185.554688 589.78125 180.847656 590.402344 175.871094 590.402344 " fill-opacity="1" fill-rule="nonzero"/></g><g clip-path="url(#d7b1f0209d)"><path fill="#d9d9d9" d="M 555.003906 595.929688 C 558.886719 595.929688 562.714844 596.53125 566.285156 597.710938 C 571.667969 599.496094 576.171875 602.550781 579.3125 606.542969 C 580.78125 608.40625 581.953125 610.464844 582.902344 612.628906 C 575.148438 611.800781 567.449219 610.441406 559.871094 608.554688 C 555.625 607.503906 551.167969 606.207031 547.328125 603.898438 C 545.519531 602.8125 544.585938 601.703125 544.476562 600.503906 C 544.222656 597.742188 548.09375 596.507812 550.175781 596.242188 C 551.78125 596.035156 553.398438 595.929688 555.003906 595.929688 Z M 637.515625 594.78125 C 642.246094 594.78125 643.613281 596.160156 644.226562 597.203125 C 645.1875 598.828125 644.664062 600.925781 643.722656 602.289062 C 642.636719 603.859375 640.960938 604.914062 639.3125 605.824219 C 630.78125 610.542969 620.339844 613 606.632812 613.496094 C 608.125 608.800781 610.144531 605.195312 612.789062 602.503906 C 615.59375 599.648438 619.375 597.570312 624.039062 596.316406 C 627.796875 595.3125 632.164062 594.808594 637.390625 594.78125 C 637.429688 594.78125 637.472656 594.78125 637.515625 594.78125 Z M 605.402344 614.4375 C 605.375 614.527344 605.347656 614.617188 605.324219 614.710938 C 602.523438 624.644531 602.667969 635.058594 602.808594 645.136719 C 602.925781 653.804688 603.054688 662.769531 605.949219 671.175781 C 607.175781 674.734375 608.902344 678.175781 610.574219 681.5 C 613.160156 686.644531 615.832031 691.960938 616.585938 697.695312 C 616.792969 699.261719 616.867188 702.082031 615.0625 703.316406 C 614.164062 703.929688 612.925781 704.035156 611.925781 704.117188 C 594.746094 705.535156 577.636719 705.730469 561.703125 705.730469 C 561.328125 705.730469 560.960938 705.730469 560.605469 705.726562 C 565.46875 703.996094 569.816406 701.71875 573.542969 698.941406 C 577.953125 695.65625 581.382812 691.753906 583.738281 687.328125 C 588.519531 678.355469 588.878906 668.195312 589.230469 658.371094 C 589.601562 648.101562 589.058594 637.757812 587.628906 627.617188 C 586.992188 623.117188 586.09375 618.226562 584.316406 613.679688 C 590.792969 614.3125 597.3125 614.578125 603.832031 614.472656 C 604.359375 614.464844 604.882812 614.449219 605.402344 614.4375 Z M 629.253906 716.054688 C 626.695312 718.917969 623.40625 721.34375 619.476562 723.261719 C 612.996094 726.421875 604.554688 728.308594 594.398438 728.863281 C 593.25 728.925781 591.9375 729.019531 590.554688 729.117188 C 584.421875 729.542969 576.023438 730.128906 568.488281 729.203125 C 564.40625 728.703125 560.957031 727.792969 558.238281 726.503906 C 555.109375 725.023438 552.832031 722.980469 551.472656 720.441406 C 550.644531 718.890625 550.371094 717.257812 550.742188 716.0625 C 550.988281 715.261719 551.519531 714.644531 552.320312 714.226562 C 553.558594 713.585938 555.003906 713.355469 556.300781 713.585938 C 573.148438 716.601562 583.726562 717.765625 592.800781 717.59375 C 601.726562 717.425781 609.113281 715.988281 620.21875 713.640625 C 623.320312 712.984375 626.757812 713.824219 628.96875 715.785156 C 629.066406 715.871094 629.164062 715.960938 629.253906 716.054688 Z M 626.015625 736.417969 C 624.03125 739.957031 621.613281 743.183594 618.242188 745.402344 C 614.105469 748.117188 608.996094 748.945312 604.085938 749.433594 C 601.601562 749.6875 589.9375 749.976562 578.421875 749.160156 C 563.589844 748.109375 554.371094 745.675781 551.765625 742.128906 C 550.898438 740.945312 550.78125 739.664062 551.410156 738.203125 C 551.902344 737.054688 552.855469 736.539062 554.703125 736.421875 C 556.585938 736.300781 559.222656 736.617188 562.867188 737.054688 C 573.53125 738.339844 591.378906 740.492188 621.324219 735.71875 C 622.976562 735.453125 624.652344 735.707031 626.015625 736.417969 Z M 599.0625 774.617188 C 607.851562 774.617188 617.480469 772.675781 624.789062 770.371094 C 637.363281 766.402344 650.167969 759.503906 665.085938 748.652344 C 675.207031 741.296875 686.296875 736.714844 698.050781 735.042969 C 707.457031 733.699219 717.3125 734.207031 727.339844 736.546875 C 744.441406 740.53125 756.265625 748.578125 756.386719 748.660156 C 756.589844 748.800781 756.871094 748.75 757.011719 748.542969 C 757.15625 748.339844 757.101562 748.058594 756.894531 747.914062 C 756.777344 747.835938 744.835938 739.707031 727.578125 735.675781 C 717.4375 733.304688 707.464844 732.789062 697.945312 734.144531 C 686.03125 735.839844 674.800781 740.476562 664.554688 747.921875 C 649.71875 758.710938 636.996094 765.570312 624.515625 769.507812 C 613.210938 773.078125 596.304688 775.773438 585.859375 771.625 C 582.320312 770.21875 579.789062 767.507812 579.558594 764.875 C 579.375 762.804688 580.582031 760.90625 583.058594 759.375 C 587.609375 756.558594 593.917969 757.4375 600.019531 758.285156 C 603.925781 758.828125 607.621094 759.34375 610.859375 758.9375 C 615.402344 758.371094 619.960938 756.585938 623.359375 754.046875 C 627.28125 751.113281 629.550781 747.375 629.914062 743.230469 C 630.125 740.824219 629.519531 737.71875 627.214844 736.089844 C 628.136719 734.386719 628.953125 732.652344 629.710938 730.980469 C 631.859375 726.25 633.609375 719.996094 630.457031 716.042969 C 633.132812 712.863281 635.027344 709.140625 636.132812 704.886719 C 637.617188 699.167969 638.351562 693.488281 639.058594 687.992188 C 640.277344 678.566406 641.425781 669.667969 646.035156 660.539062 C 650.375 651.949219 656.296875 644.113281 662.023438 636.53125 C 666.886719 630.09375 671.914062 623.4375 675.980469 616.320312 C 683.210938 603.675781 687.476562 589.042969 688.324219 574.003906 C 689.167969 558.964844 686.566406 543.945312 680.800781 530.570312 C 677.042969 521.863281 672.054688 513.824219 665.964844 506.691406 C 660.148438 499.878906 653.347656 493.894531 645.742188 488.90625 C 631.035156 479.253906 613.828125 473.59375 595.976562 472.535156 C 578.878906 471.523438 562.074219 474.835938 547.375 482.113281 C 539.675781 485.925781 532.605469 490.804688 526.355469 496.613281 C 519.796875 502.703125 514.121094 509.847656 509.484375 517.84375 C 503.699219 527.820312 499.953125 538.691406 498.359375 550.152344 C 496.886719 560.738281 497.226562 571.925781 499.367188 583.40625 C 503.199219 603.941406 512.730469 625.265625 526.9375 645.074219 C 526.949219 645.089844 526.960938 645.101562 526.96875 645.113281 C 527.023438 645.167969 532.199219 650.941406 537.574219 659.746094 C 540.730469 664.910156 543.332031 670.089844 545.316406 675.148438 C 547.785156 681.453125 549.289062 687.578125 549.78125 693.351562 C 550.304688 699.511719 551.542969 703.078125 553.792969 704.921875 C 554.527344 705.523438 555.332031 705.914062 556.210938 706.164062 C 547.457031 708.566406 537.875 709.046875 530.015625 707.421875 C 518.921875 705.121094 510.914062 703.117188 504.476562 701.507812 C 492.433594 698.496094 485.800781 696.839844 474.667969 697.171875 C 467.421875 697.382812 460.375 698.410156 453.722656 700.210938 C 448.394531 701.65625 443.308594 703.601562 438.597656 705.992188 C 430.570312 710.066406 426.488281 713.972656 426.316406 714.136719 C 426.136719 714.308594 426.132812 714.59375 426.304688 714.773438 C 426.480469 714.953125 426.765625 714.957031 426.945312 714.785156 C 426.984375 714.746094 431.125 710.792969 439.046875 706.777344 C 443.695312 704.417969 448.722656 702.5 453.984375 701.074219 C 460.5625 699.296875 467.53125 698.285156 474.695312 698.070312 C 485.699219 697.742188 492.292969 699.390625 504.257812 702.382812 C 510.703125 703.996094 518.722656 706 529.832031 708.304688 C 538.355469 710.070312 548.855469 709.402344 558.199219 706.527344 C 559.292969 706.632812 560.464844 706.632812 561.703125 706.632812 C 577.652344 706.632812 594.789062 706.4375 612 705.015625 C 613.105469 704.925781 614.480469 704.8125 615.574219 704.0625 C 617.664062 702.628906 617.765625 699.746094 617.480469 697.574219 C 616.707031 691.695312 614 686.304688 611.382812 681.09375 C 609.722656 677.796875 608.007812 674.382812 606.800781 670.878906 C 603.953125 662.609375 603.832031 653.722656 603.710938 645.125 C 603.570312 635.113281 603.425781 624.761719 606.195312 614.957031 C 606.246094 614.773438 606.300781 614.589844 606.351562 614.410156 C 620.363281 613.933594 631.023438 611.4375 639.75 606.613281 C 641.496094 605.652344 643.273438 604.523438 644.464844 602.800781 C 645.570312 601.203125 646.164062 598.710938 645.003906 596.746094 C 643.472656 594.148438 639.921875 593.867188 637.386719 593.878906 C 632.078125 593.90625 627.636719 594.417969 623.800781 595.445312 C 618.984375 596.738281 615.058594 598.898438 612.144531 601.871094 C 609.34375 604.722656 607.222656 608.546875 605.675781 613.527344 C 605.0625 613.546875 604.445312 613.558594 603.816406 613.570312 C 597.175781 613.679688 590.53125 613.398438 583.933594 612.734375 C 582.921875 610.335938 581.648438 608.050781 580.023438 605.984375 C 576.773438 601.851562 572.121094 598.695312 566.566406 596.855469 C 561.398438 595.144531 555.6875 594.621094 550.058594 595.34375 C 548.414062 595.558594 546.8125 596.109375 545.664062 596.863281 C 544.164062 597.84375 543.445312 599.128906 543.578125 600.585938 C 543.714844 602.089844 544.789062 603.425781 546.863281 604.671875 C 550.804688 607.042969 555.339844 608.363281 559.652344 609.433594 C 567.433594 611.367188 575.339844 612.75 583.304688 613.578125 C 585.160156 618.167969 586.085938 623.160156 586.734375 627.746094 C 588.15625 637.832031 588.695312 648.121094 588.332031 658.339844 C 587.984375 668.058594 587.625 678.113281 582.941406 686.90625 C 580.648438 691.207031 577.304688 695.015625 573.003906 698.214844 C 569.074219 701.144531 564.4375 703.507812 559.21875 705.25 C 558.847656 705.375 558.476562 705.496094 558.101562 705.613281 C 556.65625 705.453125 555.417969 705.085938 554.363281 704.222656 C 552.34375 702.574219 551.175781 699.09375 550.679688 693.273438 C 550.179688 687.410156 548.65625 681.199219 546.152344 674.808594 C 544.152344 669.699219 541.523438 664.472656 538.339844 659.257812 C 533.074219 650.648438 527.996094 644.90625 527.65625 644.527344 C 513.539062 624.832031 504.058594 603.636719 500.253906 583.238281 C 498.132812 571.855469 497.792969 560.765625 499.253906 550.277344 C 500.835938 538.933594 504.539062 528.171875 510.269531 518.296875 C 514.859375 510.378906 520.480469 503.304688 526.96875 497.273438 C 533.152344 491.527344 540.15625 486.695312 547.777344 482.921875 C 562.332031 475.710938 578.980469 472.429688 595.921875 473.433594 C 613.613281 474.484375 630.671875 480.09375 645.25 489.660156 C 652.777344 494.601562 659.519531 500.527344 665.277344 507.277344 C 671.308594 514.34375 676.25 522.300781 679.972656 530.929688 C 685.683594 544.175781 688.257812 559.054688 687.421875 573.953125 C 686.582031 588.855469 682.355469 603.351562 675.199219 615.875 C 671.160156 622.941406 666.148438 629.570312 661.304688 635.988281 C 655.550781 643.597656 649.605469 651.472656 645.230469 660.132812 C 640.550781 669.398438 639.335938 678.792969 638.164062 687.878906 C 637.457031 693.34375 636.726562 698.996094 635.257812 704.65625 C 634.203125 708.71875 632.386719 712.316406 629.84375 715.367188 C 629.753906 715.277344 629.664062 715.191406 629.566406 715.109375 C 627.148438 712.964844 623.40625 712.042969 620.03125 712.757812 C 608.976562 715.09375 601.628906 716.523438 592.785156 716.6875 C 583.769531 716.863281 573.246094 715.703125 556.460938 712.695312 C 554.972656 712.433594 553.3125 712.695312 551.910156 713.425781 C 551.910156 713.425781 551.90625 713.425781 551.902344 713.425781 C 550.878906 713.960938 550.199219 714.757812 549.875 715.796875 C 549.246094 717.839844 550.226562 720.023438 550.675781 720.863281 C 556.832031 732.371094 577.980469 730.898438 590.617188 730.015625 C 592 729.921875 593.304688 729.828125 594.445312 729.765625 C 611.035156 728.855469 622.878906 724.484375 629.851562 716.738281 C 632.578125 720.355469 630.902344 726.175781 628.890625 730.605469 C 628.125 732.285156 627.328125 733.984375 626.449219 735.625 C 624.914062 734.824219 623.03125 734.535156 621.183594 734.828125 C 591.363281 739.582031 573.589844 737.4375 562.972656 736.160156 C 555.585938 735.269531 551.875 734.820312 550.578125 737.847656 C 549.824219 739.601562 549.980469 741.222656 551.035156 742.664062 C 552.582031 744.765625 556.128906 746.484375 561.582031 747.773438 C 565.984375 748.816406 571.625 749.585938 578.355469 750.0625 C 589.925781 750.882812 601.667969 750.585938 604.179688 750.335938 C 609.199219 749.832031 614.441406 748.980469 618.738281 746.15625 C 622.214844 743.871094 624.746094 740.484375 626.773438 736.886719 C 628.703125 738.308594 629.203125 741.03125 629.011719 743.148438 C 628.277344 751.515625 619.269531 756.976562 610.75 758.042969 C 607.628906 758.433594 603.992188 757.925781 600.140625 757.390625 C 593.882812 756.519531 587.410156 755.621094 582.582031 758.609375 C 580.640625 759.808594 578.386719 761.878906 578.65625 764.953125 C 578.921875 767.964844 581.617188 770.914062 585.523438 772.460938 C 589.378906 773.996094 594.085938 774.617188 599.0625 774.617188 " fill-opacity="1" fill-rule="nonzero"/></g><g clip-path="url(#d772b8169a)"><path fill="#d9d9d9" d="M 1039.542969 484.050781 L 1038.425781 484.050781 C 1038.425781 373.417969 948.449219 283.40625 837.855469 283.40625 C 727.257812 283.40625 637.289062 373.417969 637.289062 484.050781 L 636.167969 484.050781 C 636.167969 481.167969 636.234375 478.289062 636.359375 475.410156 C 636.480469 472.53125 636.667969 469.65625 636.917969 466.785156 C 637.164062 463.914062 637.472656 461.050781 637.84375 458.191406 C 638.214844 455.335938 638.644531 452.488281 639.136719 449.648438 C 639.628906 446.808594 640.183594 443.980469 640.796875 441.167969 C 641.410156 438.351562 642.082031 435.550781 642.816406 432.761719 C 643.550781 429.976562 644.34375 427.207031 645.195312 424.457031 C 646.046875 421.703125 646.957031 418.96875 647.925781 416.257812 C 648.894531 413.542969 649.921875 410.851562 651.003906 408.179688 C 652.089844 405.511719 653.230469 402.867188 654.429688 400.246094 C 655.625 397.625 656.878906 395.03125 658.1875 392.464844 C 659.496094 389.898438 660.859375 387.359375 662.277344 384.851562 C 663.691406 382.34375 665.164062 379.867188 666.6875 377.421875 C 668.210938 374.976562 669.785156 372.5625 671.410156 370.183594 C 673.039062 367.808594 674.714844 365.464844 676.441406 363.160156 C 678.167969 360.851562 679.941406 358.585938 681.765625 356.355469 C 683.589844 354.125 685.460938 351.933594 687.378906 349.785156 C 689.296875 347.632812 691.257812 345.527344 693.265625 343.460938 C 695.273438 341.394531 697.328125 339.371094 699.421875 337.394531 C 701.515625 335.417969 703.652344 333.484375 705.828125 331.597656 C 708.007812 329.710938 710.222656 327.871094 712.480469 326.082031 C 714.734375 324.289062 717.027344 322.546875 719.359375 320.851562 C 721.6875 319.160156 724.054688 317.519531 726.457031 315.925781 C 728.855469 314.332031 731.289062 312.792969 733.757812 311.308594 C 736.222656 309.820312 738.722656 308.386719 741.25 307.003906 C 743.777344 305.625 746.335938 304.296875 748.917969 303.027344 C 751.503906 301.757812 754.117188 300.542969 756.753906 299.382812 C 759.390625 298.222656 762.050781 297.121094 764.734375 296.074219 C 767.417969 295.03125 770.125 294.042969 772.851562 293.113281 C 775.578125 292.183594 778.320312 291.316406 781.085938 290.503906 C 783.851562 289.691406 786.628906 288.9375 789.425781 288.246094 C 792.222656 287.554688 795.03125 286.921875 797.855469 286.351562 C 800.675781 285.777344 803.511719 285.265625 806.355469 284.816406 C 809.199219 284.367188 812.054688 283.976562 814.914062 283.648438 C 817.777344 283.320312 820.644531 283.050781 823.519531 282.847656 C 826.390625 282.640625 829.265625 282.496094 832.144531 282.414062 C 835.023438 282.332031 837.90625 282.3125 840.785156 282.351562 C 843.664062 282.394531 846.542969 282.496094 849.417969 282.660156 C 852.292969 282.824219 855.164062 283.050781 858.03125 283.339844 C 860.898438 283.625 863.753906 283.976562 866.605469 284.386719 C 869.457031 284.796875 872.296875 285.265625 875.128906 285.796875 C 877.960938 286.328125 880.777344 286.921875 883.585938 287.574219 C 886.390625 288.226562 889.179688 288.9375 891.957031 289.710938 C 894.730469 290.484375 897.488281 291.3125 900.226562 292.203125 C 902.964844 293.09375 905.6875 294.042969 908.382812 295.046875 C 911.082031 296.054688 913.757812 297.121094 916.414062 298.242188 C 919.066406 299.363281 921.695312 300.539062 924.296875 301.773438 C 926.898438 303.007812 929.476562 304.296875 932.023438 305.640625 C 934.570312 306.984375 937.089844 308.382812 939.578125 309.835938 C 942.0625 311.289062 944.519531 312.792969 946.941406 314.351562 C 949.367188 315.90625 951.753906 317.515625 954.109375 319.175781 C 956.464844 320.835938 958.78125 322.542969 961.0625 324.304688 C 963.34375 326.0625 965.589844 327.871094 967.792969 329.726562 C 969.996094 331.582031 972.160156 333.480469 974.28125 335.429688 C 976.402344 337.378906 978.484375 339.371094 980.519531 341.40625 C 982.558594 343.445312 984.550781 345.523438 986.5 347.644531 C 988.449219 349.769531 990.347656 351.929688 992.207031 354.136719 C 994.0625 356.339844 995.867188 358.582031 997.628906 360.863281 C 999.386719 363.144531 1001.097656 365.460938 1002.757812 367.816406 C 1004.417969 370.171875 1006.027344 372.558594 1007.585938 374.984375 C 1009.144531 377.40625 1010.648438 379.863281 1012.101562 382.351562 C 1013.554688 384.839844 1014.953125 387.355469 1016.296875 389.90625 C 1017.644531 392.453125 1018.933594 395.027344 1020.167969 397.632812 C 1021.402344 400.234375 1022.582031 402.863281 1023.703125 405.515625 C 1028.957031 417.941406 1032.917969 430.761719 1035.585938 443.984375 C 1038.253906 457.207031 1039.570312 470.5625 1039.542969 484.050781 Z M 1039.542969 484.050781 " fill-opacity="1" fill-rule="nonzero"/></g><g clip-path="url(#52436d2572)"><g clip-path="url(#33f55b09ff)"><g clip-path="url(#ff0d874b7b)"><path fill="#d9d9d9" d="M 538.429688 633.785156 L 537.453125 634.332031 C 483.523438 537.734375 361.085938 503 264.519531 556.90625 C 167.953125 610.816406 133.269531 733.265625 187.195312 829.863281 L 186.21875 830.410156 C 184.816406 827.890625 183.464844 825.347656 182.171875 822.773438 C 180.878906 820.199219 179.640625 817.597656 178.457031 814.96875 C 177.273438 812.34375 176.148438 809.691406 175.078125 807.015625 C 174.007812 804.339844 172.996094 801.640625 172.042969 798.921875 C 171.089844 796.203125 170.191406 793.464844 169.355469 790.710938 C 168.519531 787.953125 167.742188 785.179688 167.023438 782.386719 C 166.308594 779.597656 165.648438 776.792969 165.050781 773.972656 C 164.453125 771.15625 163.917969 768.324219 163.441406 765.484375 C 162.960938 762.640625 162.546875 759.792969 162.191406 756.933594 C 161.839844 754.074219 161.546875 751.207031 161.3125 748.335938 C 161.082031 745.464844 160.910156 742.585938 160.800781 739.707031 C 160.695312 736.828125 160.648438 733.949219 160.660156 731.066406 C 160.675781 728.1875 160.753906 725.308594 160.890625 722.429688 C 161.027344 719.550781 161.226562 716.679688 161.488281 713.808594 C 161.75 710.941406 162.070312 708.078125 162.457031 705.222656 C 162.839844 702.367188 163.285156 699.519531 163.789062 696.683594 C 164.292969 693.847656 164.859375 691.023438 165.488281 688.210938 C 166.113281 685.398438 166.800781 682.601562 167.546875 679.820312 C 168.292969 677.039062 169.097656 674.273438 169.960938 671.523438 C 170.828125 668.777344 171.75 666.046875 172.730469 663.339844 C 173.714844 660.628906 174.753906 657.945312 175.847656 655.28125 C 176.945312 652.617188 178.097656 649.976562 179.308594 647.363281 C 180.519531 644.75 181.78125 642.160156 183.101562 639.601562 C 184.421875 637.039062 185.796875 634.511719 187.226562 632.007812 C 188.65625 629.507812 190.136719 627.039062 191.671875 624.601562 C 193.207031 622.164062 194.792969 619.757812 196.429688 617.386719 C 198.066406 615.019531 199.753906 612.683594 201.492188 610.386719 C 203.230469 608.089844 205.015625 605.832031 206.851562 603.609375 C 208.683594 601.390625 210.566406 599.207031 212.492188 597.066406 C 214.421875 594.925781 216.394531 592.828125 218.410156 590.773438 C 220.429688 588.71875 222.488281 586.707031 224.59375 584.738281 C 226.699219 582.769531 228.84375 580.851562 231.027344 578.972656 C 233.214844 577.097656 235.441406 575.269531 237.703125 573.492188 C 239.96875 571.710938 242.269531 569.980469 244.609375 568.296875 C 246.949219 566.617188 249.320312 564.984375 251.730469 563.40625 C 254.136719 561.824219 256.578125 560.296875 259.054688 558.824219 C 261.527344 557.347656 264.03125 555.925781 266.566406 554.558594 C 269.101562 553.191406 271.664062 551.878906 274.253906 550.617188 C 276.84375 549.359375 279.460938 548.160156 282.105469 547.011719 C 284.746094 545.867188 287.414062 544.777344 290.101562 543.746094 C 292.792969 542.714844 295.503906 541.742188 298.234375 540.824219 C 300.964844 539.910156 303.714844 539.050781 306.480469 538.253906 C 309.25 537.457031 312.03125 536.71875 314.832031 536.039062 C 317.632812 535.359375 320.445312 534.742188 323.269531 534.183594 C 326.09375 533.625 328.933594 533.128906 331.777344 532.691406 C 334.625 532.253906 337.480469 531.878906 340.34375 531.566406 C 343.207031 531.25 346.078125 531 348.953125 530.808594 C 351.824219 530.617188 354.703125 530.488281 357.582031 530.417969 C 360.460938 530.351562 363.34375 530.34375 366.222656 530.398438 C 369.101562 530.453125 371.980469 530.570312 374.855469 530.75 C 377.730469 530.929688 380.601562 531.167969 383.464844 531.46875 C 386.328125 531.773438 389.1875 532.132812 392.035156 532.558594 C 394.886719 532.980469 397.726562 533.46875 400.554688 534.011719 C 403.382812 534.558594 406.199219 535.164062 409 535.832031 C 411.804688 536.496094 414.589844 537.222656 417.363281 538.007812 C 420.132812 538.792969 422.886719 539.636719 425.625 540.542969 C 428.359375 541.445312 431.074219 542.40625 433.769531 543.425781 C 436.464844 544.445312 439.132812 545.523438 441.78125 546.65625 C 444.429688 547.792969 447.054688 548.980469 449.652344 550.230469 C 452.25 551.476562 454.820312 552.777344 457.359375 554.132812 C 459.902344 555.492188 462.414062 556.902344 464.894531 558.363281 C 467.375 559.828125 469.824219 561.347656 472.242188 562.914062 C 474.65625 564.484375 477.039062 566.105469 479.386719 567.777344 C 481.734375 569.445312 484.042969 571.167969 486.316406 572.9375 C 496.960938 581.222656 506.667969 590.488281 515.441406 600.734375 C 524.214844 610.976562 531.878906 621.996094 538.429688 633.785156 Z M 538.429688 633.785156 " fill-opacity="1" fill-rule="nonzero"/></g></g></g><g clip-path="url(#d8e9a753c1)"><g clip-path="url(#199ca53df5)"><g clip-path="url(#a0d3658d85)"><path fill="#d9d9d9" d="M 111.796875 319.855469 L 110.820312 320.402344 C 56.890625 223.800781 -65.546875 189.066406 -162.113281 242.976562 C -258.679688 296.882812 -293.363281 419.332031 -239.4375 515.933594 L -240.414062 516.476562 C -241.816406 513.960938 -243.167969 511.414062 -244.460938 508.839844 C -245.753906 506.265625 -246.992188 503.664062 -248.175781 501.039062 C -249.359375 498.410156 -250.484375 495.757812 -251.554688 493.082031 C -252.625 490.40625 -253.636719 487.710938 -254.589844 484.992188 C -255.542969 482.273438 -256.4375 479.535156 -257.277344 476.777344 C -258.113281 474.019531 -258.890625 471.246094 -259.609375 468.457031 C -260.324219 465.664062 -260.984375 462.859375 -261.582031 460.042969 C -262.179688 457.222656 -262.714844 454.394531 -263.191406 451.550781 C -263.667969 448.710938 -264.085938 445.859375 -264.441406 443 C -264.792969 440.140625 -265.085938 437.277344 -265.320312 434.402344 C -265.550781 431.53125 -265.722656 428.65625 -265.832031 425.777344 C -265.9375 422.898438 -265.984375 420.015625 -265.972656 417.136719 C -265.957031 414.253906 -265.878906 411.375 -265.742188 408.496094 C -265.605469 405.621094 -265.40625 402.746094 -265.144531 399.878906 C -264.882812 397.007812 -264.5625 394.144531 -264.175781 391.289062 C -263.792969 388.433594 -263.347656 385.589844 -262.84375 382.753906 C -262.339844 379.917969 -261.773438 377.09375 -261.144531 374.28125 C -260.519531 371.46875 -259.832031 368.671875 -259.085938 365.886719 C -258.339844 363.105469 -257.535156 360.339844 -256.671875 357.59375 C -255.804688 354.84375 -254.882812 352.117188 -253.902344 349.40625 C -252.917969 346.699219 -251.878906 344.011719 -250.785156 341.347656 C -249.6875 338.683594 -248.535156 336.046875 -247.324219 333.429688 C -246.113281 330.816406 -244.851562 328.230469 -243.53125 325.667969 C -242.210938 323.109375 -240.835938 320.578125 -239.40625 318.078125 C -237.976562 315.574219 -236.496094 313.105469 -234.960938 310.667969 C -233.425781 308.230469 -231.839844 305.828125 -230.203125 303.457031 C -228.566406 301.085938 -226.878906 298.753906 -225.140625 296.457031 C -223.402344 294.160156 -221.617188 291.898438 -219.78125 289.679688 C -217.949219 287.457031 -216.066406 285.277344 -214.140625 283.136719 C -212.210938 280.996094 -210.238281 278.898438 -208.222656 276.84375 C -206.203125 274.785156 -204.140625 272.773438 -202.039062 270.808594 C -199.933594 268.839844 -197.789062 266.917969 -195.605469 265.042969 C -193.417969 263.167969 -191.191406 261.339844 -188.929688 259.558594 C -186.664062 257.777344 -184.363281 256.046875 -182.023438 254.367188 C -179.683594 252.683594 -177.3125 251.054688 -174.902344 249.472656 C -172.496094 247.894531 -170.054688 246.367188 -167.578125 244.890625 C -165.105469 243.417969 -162.601562 241.996094 -160.066406 240.625 C -157.53125 239.257812 -154.96875 237.945312 -152.378906 236.6875 C -149.785156 235.429688 -147.171875 234.226562 -144.527344 233.082031 C -141.886719 231.933594 -139.21875 230.847656 -136.53125 229.8125 C -133.839844 228.78125 -131.128906 227.808594 -128.398438 226.894531 C -125.667969 225.976562 -122.917969 225.121094 -120.152344 224.324219 C -117.382812 223.523438 -114.601562 222.785156 -111.800781 222.109375 C -109 221.429688 -106.1875 220.8125 -103.363281 220.253906 C -100.539062 219.695312 -97.699219 219.199219 -94.851562 218.761719 C -92.007812 218.324219 -89.152344 217.949219 -86.289062 217.632812 C -83.425781 217.320312 -80.554688 217.066406 -77.679688 216.875 C -74.808594 216.683594 -71.929688 216.554688 -69.050781 216.488281 C -66.171875 216.417969 -63.289062 216.414062 -60.410156 216.46875 C -57.53125 216.523438 -54.652344 216.640625 -51.777344 216.820312 C -48.902344 216.996094 -46.03125 217.238281 -43.167969 217.539062 C -40.300781 217.839844 -37.445312 218.203125 -34.597656 218.625 C -31.746094 219.050781 -28.90625 219.535156 -26.078125 220.082031 C -23.25 220.625 -20.433594 221.234375 -17.632812 221.898438 C -14.828125 222.566406 -12.042969 223.289062 -9.269531 224.078125 C -6.5 224.863281 -3.746094 225.707031 -1.007812 226.609375 C 1.726562 227.511719 4.441406 228.476562 7.136719 229.496094 C 9.832031 230.515625 12.5 231.589844 15.148438 232.726562 C 17.796875 233.859375 20.421875 235.050781 23.019531 236.296875 C 25.617188 237.542969 28.1875 238.84375 30.726562 240.203125 C 33.269531 241.558594 35.78125 242.96875 38.261719 244.433594 C 40.742188 245.898438 43.191406 247.414062 45.609375 248.984375 C 48.023438 250.554688 50.40625 252.171875 52.753906 253.84375 C 55.101562 255.515625 57.410156 257.234375 59.683594 259.007812 C 70.328125 267.292969 80.035156 276.558594 88.808594 286.800781 C 97.582031 297.046875 105.246094 308.0625 111.796875 319.855469 Z M 111.796875 319.855469 " fill-opacity="1" fill-rule="nonzero"/></g></g></g><g clip-path="url(#35c338e646)"><path fill="#d9d9d9" d="M 565.621094 428.363281 C 547.039062 411.863281 522.71875 403.339844 497.941406 404.667969 C 487.433594 405.265625 476.835938 407.601562 466.601562 409.894531 C 449.625 413.699219 432.097656 417.59375 415.210938 413.238281 C 413.605469 412.828125 411.90625 412.324219 410.300781 411.820312 C 405.117188 410.214844 399.75 408.566406 394.242188 409.207031 C 387.863281 409.941406 382.953125 414.386719 381.027344 421.121094 C 377.265625 434.414062 385.386719 448.988281 390.570312 456.503906 C 391.902344 458.429688 393.371094 460.308594 394.839844 462.140625 C 398.554688 466.859375 402.363281 471.71875 403.925781 477.675781 C 405.070312 482.121094 405.117188 487.117188 404.0625 493.304688 C 402.960938 499.628906 401.261719 506.320312 398.554688 514.980469 C 394.011719 529.511719 387.863281 543.488281 380.292969 556.640625 C 379.375 558.246094 378.414062 559.894531 377.402344 561.453125 L 375.429688 564.570312 C 368.5 575.707031 361.34375 587.164062 363.039062 599.90625 C 364.1875 608.566406 369.695312 616.816406 378.089844 622.5 C 384.746094 627.035156 393.1875 630.105469 403.96875 631.941406 C 410.394531 633.039062 416.957031 633.589844 423.472656 633.542969 C 434.851562 633.542969 446.183594 631.941406 457.148438 628.824219 C 474.449219 623.964844 490.460938 615.304688 504 603.527344 C 512.992188 595.644531 518.085938 588.355469 520.148438 580.566406 C 522.078125 573.140625 521.066406 565.394531 520.148438 557.878906 C 519.691406 554.441406 519.277344 550.914062 519.09375 547.476562 C 518.039062 525.980469 528.777344 504.167969 546.394531 491.839844 C 549.5625 489.636719 552.957031 487.714844 556.214844 485.789062 C 559.519531 483.910156 562.960938 481.9375 566.125 479.691406 C 573.835938 474.285156 578.605469 468.191406 580.257812 461.542969 C 583.976562 446.695312 571.265625 433.359375 565.621094 428.363281 Z M 579.386719 461.453125 C 577.828125 467.867188 573.191406 473.828125 565.621094 479.097656 C 562.457031 481.296875 559.058594 483.269531 555.757812 485.148438 C 552.453125 487.027344 549.011719 488.996094 545.84375 491.242188 C 527.949219 503.753906 517.074219 525.890625 518.128906 547.660156 C 518.3125 551.140625 518.773438 554.71875 519.1875 558.152344 C 520.148438 565.578125 521.113281 573.230469 519.230469 580.472656 C 517.257812 588.082031 512.210938 595.230469 503.355469 602.976562 C 481.421875 622.222656 452.699219 632.8125 423.699219 632.8125 C 417.09375 632.8125 410.53125 632.261719 404.0625 631.160156 C 393.417969 629.375 385.066406 626.304688 378.550781 621.859375 C 370.472656 616.265625 365.105469 608.246094 364.003906 599.90625 C 362.351562 587.53125 369.417969 576.164062 376.253906 565.167969 C 376.898438 564.113281 377.539062 563.058594 378.183594 562.050781 C 379.191406 560.445312 380.15625 558.796875 381.074219 557.191406 C 388.691406 543.945312 394.839844 529.921875 399.382812 515.347656 C 402.132812 506.59375 403.832031 499.902344 404.933594 493.535156 C 406.035156 487.164062 405.988281 482.078125 404.796875 477.492188 C 403.191406 471.398438 399.289062 466.449219 395.574219 461.636719 C 394.152344 459.804688 392.683594 457.925781 391.351562 456 C 386.257812 448.621094 378.273438 434.320312 381.945312 421.351562 C 383.734375 414.980469 388.371094 410.8125 394.378906 410.125 C 395.160156 410.03125 395.941406 409.984375 396.71875 409.984375 C 401.21875 409.984375 405.714844 411.359375 410.027344 412.691406 C 411.632812 413.195312 413.332031 413.699219 414.980469 414.109375 C 432.050781 418.554688 449.71875 414.613281 466.785156 410.8125 C 477.019531 408.519531 487.570312 406.183594 497.988281 405.585938 C 522.535156 404.257812 546.671875 412.691406 565.023438 429.050781 C 570.53125 433.953125 582.964844 446.96875 579.386719 461.453125 Z M 579.386719 461.453125 " fill-opacity="1" fill-rule="nonzero"/></g></svg>