<svg width="51" height="2825" viewBox="0 0 51 2825" fill="none" xmlns="http://www.w3.org/2000/svg">
<path d="M25 0L25 2824.5" stroke="black" stroke-width="2"/>
<circle cx="25" cy="2220" r="15" fill="black"/>
<path d="M32 2220C32 2223.87 28.866 2227 25 2227C21.134 2227 18 2223.87 18 2220C18 2216.13 21.134 2213 25 2213C28.866 2213 32 2216.13 32 2220Z" fill="#83ADDF"/>
<circle cx="25" cy="2700" r="15" fill="black"/>
<path d="M32 2700C32 2703.87 28.866 2707 25 2707C21.134 2707 18 2703.87 18 2700C18 2696.13 21.134 2693 25 2693C28.866 2693 32 2696.13 32 2700Z" fill="#83ADDF"/>
<circle cx="26" cy="163" r="15" fill="black"/>
<path d="M33 163C33 166.866 29.866 170 26 170C22.134 170 19 166.866 19 163C19 159.134 22.134 156 26 156C29.866 156 33 159.134 33 163Z" fill="#83ADDF"/>
<circle cx="26" cy="659" r="15" fill="black"/>
<path d="M33 659C33 662.866 29.866 666 26 666C22.134 666 19 662.866 19 659C19 655.134 22.134 652 26 652C29.866 652 33 655.134 33 659Z" fill="#83ADDF"/>
<circle cx="26" cy="1194" r="15" fill="black"/>
<path d="M33 1194C33 1197.87 29.866 1201 26 1201C22.134 1201 19 1197.87 19 1194C19 1190.13 22.134 1187 26 1187C29.866 1187 33 1190.13 33 1194Z" fill="#83ADDF"/>
<circle cx="26" cy="1708" r="15" fill="black"/>
<path d="M33 1708C33 1711.87 29.866 1715 26 1715C22.134 1715 19 1711.87 19 1708C19 1704.13 22.134 1701 26 1701C29.866 1701 33 1704.13 33 1708Z" fill="#83ADDF"/>
</svg>
